<?xml version="1.0" encoding="utf-8"?>
<!-- Generator: Adobe Illustrator 19.1.0, SVG Export Plug-In . SVG Version: 6.00 Build 0)  -->
<svg version="1.1" id="Logo" xmlns="http://www.w3.org/2000/svg" xmlns:xlink="http://www.w3.org/1999/xlink" x="0px" y="0px"
	 viewBox="0 0 492 96" style="enable-background:new 0 0 492 96;" xml:space="preserve">
<style type="text/css">
	.st0{fill-rule:evenodd;clip-rule:evenodd;fill:#7AB800;}
	.st1{fill-rule:evenodd;clip-rule:evenodd;fill:#FF5800;}
	.st2{fill-rule:evenodd;clip-rule:evenodd;fill:#8E258D;}
</style>
<g id="Logo-strap">
	<path class="st0" d="M110.3,34.7H108c-1.1-5.4-3.6-8.1-7.5-8.1c-3.7,0-6.6,1.6-8.5,4.9c-1.6,2.7-2.4,6-2.4,10.1
		c0,4.5,0.9,8.2,2.8,11c2.2,3.3,5.4,4.9,9.6,4.9c1.2,0,2.7-0.4,4.4-1.1c1.6-0.7,2.9-1.5,3.9-2.4l1.8,1l-2.2,5.2
		c-3.4,1.9-7.2,2.9-11.5,2.9c-6.5,0-11.8-1.9-15.7-5.8c-3.9-3.9-5.9-9.1-5.9-15.6c0-6.2,2.1-11.2,6.2-15c4-3.7,9.1-5.5,15.4-5.5
		c5.7,0,11,1.6,15.7,4.9C112.7,28.3,111.4,31.2,110.3,34.7L110.3,34.7z"/>
	<path class="st1" d="M72.4,24.1L71,31.3l-1.6,0.5c-2.2-3.9-5-5.9-8.5-5.9c-1.4,0-2.5,0.4-3.5,1.1c-1,0.8-1.5,1.9-1.5,3.2
		c0,1.6,1.6,3.2,4.9,4.8c5,2.4,8,3.9,9,4.6c3.2,2.4,4.9,5.5,4.9,9.2c0,4.3-1.7,7.7-5.1,10.4c-3.1,2.4-6.9,3.6-11.3,3.6
		c-3.1,0-6.8-0.8-11.2-2.4l0.7-8.9h1.4c1.8,2.2,3.3,3.7,4.2,4.4c1.6,1.2,3.5,1.8,5.7,1.8c1.4,0,2.7-0.3,3.7-0.9
		c1.3-0.7,1.9-1.8,1.9-3.1c0-1.9-1.6-3.6-4.9-5.1c-5.1-2.4-8.1-3.9-9-4.6c-3.2-2.4-4.8-5.6-4.8-9.7c0-4.1,1.6-7.4,4.8-9.9
		c3-2.4,6.6-3.6,10.7-3.6C65.1,20.9,68.8,21.9,72.4,24.1L72.4,24.1z"/>
	<path class="st2" d="M29.5,27.6v-9.1L28.7,0c3.1,0.5,5.4,0.7,6.9,0.7c1.8,0,3.7-0.2,5.8-0.5l-0.6,21.7v32.7c0-0.8,0.1,1.7,0.3,7.4
		l-6.2-0.6c-1.7,0-3.5,0.1-5.2,0.4v-5.6c-2,2.4-3.7,4-5.2,4.9c-1.8,1-4.1,1.6-6.9,1.6c-5.6,0-9.9-2-13-6.1c-2.7-3.6-4-8.4-4-14.1
		C0.6,36.7,2,31.8,4.7,28c3.1-4.3,7.5-6.5,13.1-6.5C23.2,21.5,27.1,23.5,29.5,27.6L29.5,27.6z M21.4,57.3c2.9,0,5.1-1.8,6.5-5.5
		c1.1-2.7,1.6-5.7,1.6-9.2c0-10.3-2.8-15.4-8.3-15.4c-2.9,0-5.1,1.8-6.6,5.4c-1.1,2.7-1.7,5.8-1.7,9.3
		C12.9,52.2,15.7,57.3,21.4,57.3L21.4,57.3z"/>
	<path class="st2" d="M4.4,83.3c0.3,0,0.5-0.1,0.8-0.2c0.2-0.1,0.5-0.3,0.6-0.5c0.2-0.2,0.3-0.5,0.4-0.8c0.1-0.3,0.2-0.6,0.2-1v0
		c0-0.4-0.1-0.7-0.2-1c-0.1-0.3-0.3-0.6-0.4-0.8c-0.2-0.2-0.4-0.4-0.6-0.5c-0.2-0.1-0.5-0.2-0.8-0.2c-0.3,0-0.5,0.1-0.8,0.2
		c-0.2,0.1-0.5,0.3-0.7,0.5c-0.2,0.2-0.3,0.5-0.4,0.8c-0.1,0.3-0.2,0.6-0.2,1v0c0,0.4,0.1,0.7,0.2,1c0.1,0.3,0.3,0.6,0.4,0.8
		c0.2,0.2,0.4,0.4,0.7,0.5C3.9,83.3,4.2,83.3,4.4,83.3L4.4,83.3z M3.8,85.4c-0.5,0-1-0.1-1.4-0.3c-0.5-0.2-0.9-0.5-1.2-0.9
		c-0.4-0.4-0.6-0.9-0.9-1.4C0.1,82.3,0,81.6,0,80.9v0c0-0.7,0.1-1.4,0.3-1.9c0.2-0.6,0.5-1,0.8-1.4c0.4-0.4,0.8-0.7,1.2-0.9
		c0.5-0.2,0.9-0.3,1.4-0.3c0.6,0,1.2,0.1,1.6,0.4c0.4,0.3,0.8,0.6,1,0.9v-4.3h2.4v11.8H6.5V84c-0.3,0.4-0.6,0.7-1.1,1
		C5,85.3,4.5,85.4,3.8,85.4L3.8,85.4z M11.1,85.2v-8.7h2.4v8.7H11.1z M11,75.6v-2.2h2.5v2.2H11z M15.7,85.2v-8.7h2.4v1.7
		c0.2-0.6,0.6-1.1,1-1.4c0.4-0.4,1-0.5,1.7-0.5V79h-0.1c-0.8,0-1.4,0.2-1.9,0.7c-0.5,0.5-0.7,1.3-0.7,2.3v3.2H15.7L15.7,85.2z
		 M24.2,80.2h3.6c-0.1-0.6-0.3-1-0.6-1.3c-0.3-0.3-0.7-0.5-1.2-0.5c-0.5,0-0.9,0.2-1.2,0.5C24.5,79.2,24.3,79.7,24.2,80.2L24.2,80.2
		z M26.3,85.4c-0.6,0-1.2-0.1-1.8-0.3c-0.5-0.2-1-0.5-1.4-0.9c-0.4-0.4-0.7-0.9-0.9-1.4c-0.2-0.5-0.3-1.2-0.3-1.8v0
		c0-0.6,0.1-1.2,0.3-1.7c0.2-0.6,0.5-1,0.9-1.4c0.4-0.4,0.8-0.7,1.3-1c0.5-0.2,1.1-0.4,1.7-0.4c0.7,0,1.3,0.1,1.8,0.4
		c0.5,0.3,0.9,0.6,1.3,1c0.3,0.4,0.6,0.9,0.8,1.5c0.2,0.6,0.2,1.2,0.2,1.8l0,0.3l0,0.3h-5.9c0.1,0.6,0.4,1,0.7,1.3
		c0.4,0.3,0.8,0.4,1.3,0.4c0.4,0,0.8-0.1,1.1-0.2c0.3-0.1,0.6-0.4,1-0.7l1.4,1.2c-0.4,0.5-0.9,0.9-1.4,1.2
		C27.7,85.3,27,85.4,26.3,85.4L26.3,85.4z M35.9,85.4c-0.6,0-1.2-0.1-1.8-0.4c-0.5-0.2-1-0.6-1.4-1c-0.4-0.4-0.7-0.9-0.9-1.4
		c-0.2-0.5-0.3-1.1-0.3-1.7v0c0-0.6,0.1-1.2,0.3-1.7c0.2-0.6,0.5-1,0.9-1.4c0.4-0.4,0.9-0.7,1.4-1c0.5-0.2,1.1-0.4,1.8-0.4
		c0.8,0,1.5,0.1,2,0.4c0.5,0.3,1,0.6,1.4,1.1l-1.5,1.6c-0.3-0.3-0.6-0.5-0.8-0.7c-0.3-0.2-0.6-0.3-1.1-0.3c-0.3,0-0.6,0.1-0.8,0.2
		c-0.2,0.1-0.5,0.3-0.6,0.5c-0.2,0.2-0.3,0.5-0.4,0.8c-0.1,0.3-0.1,0.6-0.1,0.9v0c0,0.3,0,0.6,0.1,0.9c0.1,0.3,0.2,0.5,0.4,0.8
		c0.2,0.2,0.4,0.4,0.7,0.5c0.3,0.1,0.6,0.2,0.9,0.2c0.4,0,0.7-0.1,1-0.3c0.3-0.2,0.6-0.4,0.9-0.7l1.4,1.5c-0.4,0.5-0.9,0.8-1.4,1.1
		C37.4,85.3,36.7,85.4,35.9,85.4L35.9,85.4z M43.7,85.4c-0.4,0-0.7,0-1-0.1c-0.3-0.1-0.6-0.2-0.8-0.4c-0.2-0.2-0.4-0.5-0.5-0.8
		c-0.1-0.3-0.2-0.7-0.2-1.3v-4.1h-1v-2.1h1v-2.2h2.4v2.2h2v2.1h-2v3.7c0,0.6,0.3,0.8,0.8,0.8c0.4,0,0.8-0.1,1.2-0.3v2
		c-0.3,0.2-0.5,0.3-0.8,0.4C44.5,85.3,44.1,85.4,43.7,85.4L43.7,85.4z M51.6,83.3c0.3,0,0.7-0.1,0.9-0.2c0.3-0.1,0.5-0.3,0.7-0.5
		c0.2-0.2,0.3-0.5,0.4-0.8c0.1-0.3,0.1-0.6,0.1-0.9v0c0-0.3-0.1-0.6-0.2-0.9c-0.1-0.3-0.3-0.5-0.5-0.8c-0.2-0.2-0.4-0.4-0.7-0.5
		c-0.3-0.1-0.6-0.2-0.9-0.2c-0.3,0-0.7,0.1-0.9,0.2c-0.3,0.1-0.5,0.3-0.7,0.5c-0.2,0.2-0.3,0.5-0.4,0.8c-0.1,0.3-0.1,0.6-0.1,0.9v0
		c0,0.3,0.1,0.6,0.2,0.9c0.1,0.3,0.3,0.5,0.5,0.8c0.2,0.2,0.4,0.4,0.7,0.5C50.9,83.2,51.2,83.3,51.6,83.3L51.6,83.3z M51.5,85.4
		c-0.6,0-1.3-0.1-1.8-0.3c-0.6-0.2-1-0.6-1.4-1s-0.7-0.9-1-1.4c-0.2-0.5-0.3-1.1-0.3-1.8v0c0-0.6,0.1-1.2,0.3-1.8
		c0.2-0.5,0.5-1,1-1.4c0.4-0.4,0.9-0.7,1.4-1c0.6-0.2,1.2-0.4,1.8-0.4c0.6,0,1.3,0.1,1.8,0.3c0.6,0.2,1,0.6,1.4,1
		c0.4,0.4,0.7,0.9,1,1.4c0.2,0.5,0.3,1.1,0.3,1.8v0c0,0.6-0.1,1.2-0.3,1.8c-0.2,0.5-0.6,1-1,1.4c-0.4,0.4-0.9,0.7-1.4,1
		C52.8,85.3,52.2,85.4,51.5,85.4L51.5,85.4z M57.8,85.2v-8.7h2.4v1.7c0.2-0.6,0.6-1.1,1-1.4c0.4-0.4,1-0.5,1.7-0.5V79h-0.1
		c-0.8,0-1.4,0.2-1.9,0.7c-0.5,0.5-0.7,1.3-0.7,2.3v3.2H57.8L57.8,85.2z M66.4,87.9c-0.4,0-0.8-0.1-1.2-0.2c-0.3-0.1-0.7-0.3-1-0.4
		l0.8-1.8c0.2,0.1,0.3,0.2,0.5,0.2c0.2,0.1,0.4,0.1,0.5,0.1c0.2,0,0.4,0,0.5-0.1c0.1-0.1,0.2-0.2,0.3-0.4l-3.3-8.7h2.5l1.9,5.9
		l1.8-5.9h2.5l-3.2,8.9c-0.2,0.4-0.3,0.8-0.5,1.1c-0.2,0.3-0.4,0.6-0.6,0.8c-0.2,0.2-0.5,0.3-0.7,0.4C67.1,87.8,66.8,87.9,66.4,87.9
		L66.4,87.9z M82.7,83.3c0.3,0,0.7-0.1,0.9-0.2c0.3-0.1,0.5-0.3,0.7-0.5c0.2-0.2,0.3-0.5,0.4-0.8c0.1-0.3,0.1-0.6,0.1-0.9v0
		c0-0.3-0.1-0.6-0.2-0.9c-0.1-0.3-0.3-0.5-0.5-0.8c-0.2-0.2-0.4-0.4-0.7-0.5c-0.3-0.1-0.6-0.2-0.9-0.2c-0.3,0-0.7,0.1-0.9,0.2
		c-0.3,0.1-0.5,0.3-0.7,0.5c-0.2,0.2-0.3,0.5-0.4,0.8c-0.1,0.3-0.1,0.6-0.1,0.9v0c0,0.3,0.1,0.6,0.2,0.9c0.1,0.3,0.3,0.5,0.5,0.8
		c0.2,0.2,0.4,0.4,0.7,0.5C82.1,83.2,82.4,83.3,82.7,83.3L82.7,83.3z M82.7,85.4c-0.6,0-1.3-0.1-1.8-0.3c-0.6-0.2-1-0.6-1.4-1
		c-0.4-0.4-0.7-0.9-1-1.4c-0.2-0.5-0.3-1.1-0.3-1.8v0c0-0.6,0.1-1.2,0.3-1.8c0.2-0.5,0.5-1,1-1.4c0.4-0.4,0.9-0.7,1.4-1
		c0.6-0.2,1.2-0.4,1.8-0.4c0.6,0,1.3,0.1,1.8,0.3c0.6,0.2,1,0.6,1.4,1c0.4,0.4,0.7,0.9,1,1.4c0.2,0.5,0.3,1.1,0.3,1.8v0
		c0,0.6-0.1,1.2-0.3,1.8c-0.2,0.5-0.5,1-1,1.4c-0.4,0.4-0.9,0.7-1.4,1C84,85.3,83.3,85.4,82.7,85.4L82.7,85.4z M89.4,85.2v-6.6h-1
		v-2h1v-0.6c0-0.9,0.2-1.6,0.7-2.1c0.4-0.5,1.1-0.7,1.9-0.7c0.4,0,0.7,0,1,0.1c0.3,0,0.5,0.1,0.7,0.2v2c-0.2-0.1-0.4-0.1-0.5-0.2
		c-0.2,0-0.4-0.1-0.6-0.1c-0.6,0-0.9,0.3-0.9,0.9v0.3h1.9v2h-1.9v6.6H89.4L89.4,85.2z M102.7,85.4c-0.6,0-1.2-0.1-1.8-0.3
		c-0.6-0.2-1.2-0.5-1.8-1l1-1.6c0.5,0.3,0.9,0.6,1.4,0.8c0.5,0.2,0.9,0.3,1.3,0.3c0.3,0,0.6-0.1,0.8-0.2c0.2-0.1,0.2-0.3,0.2-0.5v0
		c0-0.1,0-0.2-0.1-0.3c-0.1-0.1-0.2-0.2-0.4-0.3c-0.2-0.1-0.3-0.1-0.6-0.2l-0.7-0.2c-0.3-0.1-0.6-0.2-0.9-0.3
		c-0.3-0.1-0.6-0.3-0.8-0.5c-0.2-0.2-0.4-0.4-0.6-0.7c-0.2-0.3-0.2-0.6-0.2-1.1v0c0-0.4,0.1-0.8,0.2-1.2c0.2-0.3,0.4-0.6,0.7-0.9
		c0.3-0.2,0.6-0.4,1-0.5c0.4-0.1,0.8-0.2,1.2-0.2c0.5,0,1.1,0.1,1.6,0.3c0.5,0.2,1.1,0.4,1.5,0.7l-0.9,1.7c-0.4-0.2-0.8-0.4-1.2-0.6
		c-0.4-0.1-0.7-0.2-1.1-0.2c-0.3,0-0.5,0.1-0.7,0.2c-0.1,0.1-0.2,0.3-0.2,0.4v0c0,0.1,0,0.2,0.1,0.3c0.1,0.1,0.2,0.2,0.4,0.3
		c0.2,0.1,0.3,0.2,0.5,0.2l0.7,0.2c0.3,0.1,0.6,0.2,0.9,0.3c0.3,0.1,0.6,0.3,0.8,0.5c0.2,0.2,0.4,0.4,0.6,0.7c0.2,0.3,0.2,0.6,0.2,1
		v0c0,0.5-0.1,0.9-0.2,1.3c-0.2,0.4-0.4,0.6-0.7,0.9c-0.3,0.2-0.6,0.4-1,0.5C103.5,85.3,103.1,85.4,102.7,85.4L102.7,85.4z
		 M111.7,83.3c0.3,0,0.7-0.1,0.9-0.2c0.3-0.1,0.5-0.3,0.7-0.5c0.2-0.2,0.3-0.5,0.4-0.8c0.1-0.3,0.1-0.6,0.1-0.9v0
		c0-0.3-0.1-0.6-0.2-0.9c-0.1-0.3-0.3-0.5-0.5-0.8c-0.2-0.2-0.4-0.4-0.7-0.5c-0.3-0.1-0.6-0.2-0.9-0.2c-0.3,0-0.7,0.1-0.9,0.2
		c-0.3,0.1-0.5,0.3-0.7,0.5c-0.2,0.2-0.3,0.5-0.4,0.8c-0.1,0.3-0.1,0.6-0.1,0.9v0c0,0.3,0.1,0.6,0.2,0.9c0.1,0.3,0.3,0.5,0.5,0.8
		c0.2,0.2,0.4,0.4,0.7,0.5C111.1,83.2,111.4,83.3,111.7,83.3L111.7,83.3z M111.7,85.4c-0.6,0-1.3-0.1-1.8-0.3c-0.6-0.2-1-0.6-1.4-1
		c-0.4-0.4-0.7-0.9-1-1.4c-0.2-0.5-0.3-1.1-0.3-1.8v0c0-0.6,0.1-1.2,0.3-1.8c0.2-0.5,0.5-1,1-1.4c0.4-0.4,0.9-0.7,1.4-1
		c0.6-0.2,1.2-0.4,1.8-0.4c0.6,0,1.3,0.1,1.8,0.3c0.6,0.2,1,0.6,1.4,1c0.4,0.4,0.7,0.9,1,1.4s0.3,1.1,0.3,1.8v0
		c0,0.6-0.1,1.2-0.3,1.8c-0.2,0.5-0.5,1-1,1.4c-0.4,0.4-0.9,0.7-1.4,1C113,85.3,112.4,85.4,111.7,85.4L111.7,85.4z M122,85.4
		c-0.6,0-1.2-0.1-1.8-0.4c-0.5-0.2-1-0.6-1.4-1c-0.4-0.4-0.7-0.9-0.9-1.4c-0.2-0.5-0.3-1.1-0.3-1.7v0c0-0.6,0.1-1.2,0.3-1.7
		c0.2-0.6,0.5-1,0.9-1.4c0.4-0.4,0.9-0.7,1.4-1c0.5-0.2,1.1-0.4,1.8-0.4c0.8,0,1.5,0.1,2,0.4c0.5,0.3,1,0.6,1.4,1.1l-1.5,1.6
		c-0.3-0.3-0.6-0.5-0.8-0.7c-0.3-0.2-0.6-0.3-1.1-0.3c-0.3,0-0.6,0.1-0.8,0.2c-0.2,0.1-0.5,0.3-0.6,0.5c-0.2,0.2-0.3,0.5-0.4,0.8
		c-0.1,0.3-0.1,0.6-0.1,0.9v0c0,0.3,0,0.6,0.1,0.9c0.1,0.3,0.2,0.5,0.4,0.8c0.2,0.2,0.4,0.4,0.7,0.5c0.3,0.1,0.6,0.2,0.9,0.2
		c0.4,0,0.7-0.1,1-0.3c0.3-0.2,0.6-0.4,0.9-0.7l1.4,1.5c-0.4,0.5-0.9,0.8-1.4,1.1C123.5,85.3,122.8,85.4,122,85.4L122,85.4z
		 M127.1,85.2v-8.7h2.4v8.7H127.1z M127,75.6v-2.2h2.5v2.2H127z M134.8,83.7c0.6,0,1-0.1,1.4-0.4c0.3-0.3,0.5-0.6,0.5-1.1v-0.4
		c-0.2-0.1-0.4-0.2-0.7-0.2c-0.3-0.1-0.5-0.1-0.8-0.1c-0.5,0-0.9,0.1-1.2,0.3c-0.3,0.2-0.4,0.5-0.4,0.9v0c0,0.3,0.1,0.6,0.4,0.8
		C134.1,83.6,134.5,83.7,134.8,83.7L134.8,83.7z M134.1,85.4c-0.4,0-0.8-0.1-1.1-0.2c-0.4-0.1-0.7-0.3-0.9-0.5
		c-0.3-0.2-0.5-0.5-0.6-0.8c-0.2-0.3-0.2-0.7-0.2-1.1v0c0-0.5,0.1-0.9,0.3-1.2c0.2-0.3,0.4-0.6,0.7-0.9c0.3-0.2,0.7-0.4,1.1-0.5
		c0.4-0.1,0.9-0.2,1.4-0.2c0.4,0,0.8,0,1.1,0.1c0.3,0.1,0.6,0.2,0.9,0.3v-0.1c0-0.5-0.2-0.9-0.5-1.2c-0.3-0.3-0.8-0.4-1.4-0.4
		c-0.5,0-0.9,0-1.2,0.1c-0.4,0.1-0.7,0.2-1.1,0.3l-0.6-1.9c0.5-0.2,0.9-0.4,1.4-0.5c0.5-0.1,1.1-0.2,1.8-0.2c0.7,0,1.2,0.1,1.7,0.3
		c0.5,0.2,0.9,0.4,1.2,0.7c0.3,0.3,0.5,0.7,0.7,1.2c0.1,0.5,0.2,1,0.2,1.6v5h-2.3v-0.9c-0.3,0.3-0.6,0.6-1.1,0.8
		C135.2,85.3,134.7,85.4,134.1,85.4L134.1,85.4z M141.1,85.2V73.4h2.4v11.8H141.1z M154.5,85.4c-0.6,0-1.2-0.1-1.8-0.4
		c-0.5-0.2-1-0.6-1.4-1c-0.4-0.4-0.7-0.9-0.9-1.4c-0.2-0.5-0.3-1.1-0.3-1.7v0c0-0.6,0.1-1.2,0.3-1.7c0.2-0.6,0.5-1,0.9-1.4
		c0.4-0.4,0.9-0.7,1.4-1c0.5-0.2,1.1-0.4,1.8-0.4c0.8,0,1.5,0.1,2,0.4c0.5,0.3,1,0.6,1.4,1.1l-1.5,1.6c-0.3-0.3-0.6-0.5-0.8-0.7
		c-0.3-0.2-0.6-0.3-1.1-0.3c-0.3,0-0.6,0.1-0.8,0.2c-0.2,0.1-0.5,0.3-0.6,0.5c-0.2,0.2-0.3,0.5-0.4,0.8c-0.1,0.3-0.1,0.6-0.1,0.9v0
		c0,0.3,0,0.6,0.1,0.9c0.1,0.3,0.2,0.5,0.4,0.8c0.2,0.2,0.4,0.4,0.7,0.5c0.3,0.1,0.6,0.2,0.9,0.2c0.4,0,0.7-0.1,1-0.3
		c0.3-0.2,0.6-0.4,0.9-0.7l1.4,1.5c-0.4,0.5-0.9,0.8-1.4,1.1C156,85.3,155.3,85.4,154.5,85.4L154.5,85.4z M159.5,85.2V73.4h2.4v4.4
		c0.1-0.2,0.3-0.4,0.4-0.5c0.2-0.2,0.3-0.3,0.5-0.4c0.2-0.1,0.4-0.2,0.7-0.3c0.2-0.1,0.5-0.1,0.8-0.1c0.9,0,1.6,0.3,2.1,0.9
		c0.5,0.6,0.7,1.4,0.7,2.4v5.6h-2.4v-4.8c0-0.6-0.1-1-0.4-1.3c-0.3-0.3-0.6-0.4-1.1-0.4c-0.5,0-0.8,0.1-1.1,0.4
		c-0.3,0.3-0.4,0.7-0.4,1.3v4.8H159.5L159.5,85.2z M172.4,83.7c0.6,0,1-0.1,1.4-0.4c0.3-0.3,0.5-0.6,0.5-1.1v-0.4
		c-0.2-0.1-0.4-0.2-0.7-0.2c-0.3-0.1-0.5-0.1-0.8-0.1c-0.5,0-0.9,0.1-1.2,0.3c-0.3,0.2-0.4,0.5-0.4,0.9v0c0,0.3,0.1,0.6,0.4,0.8
		C171.7,83.6,172,83.7,172.4,83.7L172.4,83.7z M171.6,85.4c-0.4,0-0.8-0.1-1.1-0.2c-0.4-0.1-0.7-0.3-0.9-0.5
		c-0.3-0.2-0.5-0.5-0.6-0.8c-0.2-0.3-0.2-0.7-0.2-1.1v0c0-0.5,0.1-0.9,0.3-1.2c0.2-0.3,0.4-0.6,0.7-0.9c0.3-0.2,0.7-0.4,1.1-0.5
		c0.4-0.1,0.9-0.2,1.4-0.2c0.4,0,0.8,0,1.1,0.1c0.3,0.1,0.6,0.2,0.9,0.3v-0.1c0-0.5-0.2-0.9-0.5-1.2c-0.3-0.3-0.8-0.4-1.4-0.4
		c-0.5,0-0.9,0-1.2,0.1c-0.4,0.1-0.7,0.2-1.1,0.3l-0.6-1.9c0.5-0.2,0.9-0.4,1.4-0.5c0.5-0.1,1.1-0.2,1.8-0.2c0.7,0,1.2,0.1,1.7,0.3
		c0.5,0.2,0.9,0.4,1.2,0.7c0.3,0.3,0.5,0.7,0.7,1.2c0.1,0.5,0.2,1,0.2,1.6v5h-2.3v-0.9c-0.3,0.3-0.6,0.6-1.1,0.8
		C172.7,85.3,172.2,85.4,171.6,85.4L171.6,85.4z M178.5,85.2v-8.7h2.4v1.2c0.1-0.2,0.3-0.4,0.4-0.5c0.2-0.2,0.3-0.3,0.5-0.4
		c0.2-0.1,0.4-0.2,0.7-0.3c0.2-0.1,0.5-0.1,0.8-0.1c0.9,0,1.6,0.3,2.1,0.9c0.5,0.6,0.7,1.4,0.7,2.4v5.6h-2.4v-4.8
		c0-0.6-0.1-1-0.4-1.3c-0.3-0.3-0.6-0.4-1.1-0.4c-0.5,0-0.8,0.1-1.1,0.4c-0.3,0.3-0.4,0.7-0.4,1.3v4.8H178.5L178.5,85.2z
		 M192.4,82.5c0.3,0,0.6,0,0.8-0.1c0.3-0.1,0.5-0.2,0.7-0.4c0.2-0.2,0.3-0.4,0.4-0.6c0.1-0.2,0.2-0.5,0.2-0.8v0
		c0-0.3-0.1-0.6-0.2-0.8c-0.1-0.2-0.2-0.5-0.4-0.6c-0.2-0.2-0.4-0.3-0.7-0.4c-0.3-0.1-0.5-0.1-0.8-0.1c-0.3,0-0.6,0-0.8,0.1
		c-0.2,0.1-0.5,0.2-0.6,0.4c-0.2,0.2-0.3,0.4-0.4,0.6c-0.1,0.2-0.2,0.5-0.2,0.8v0c0,0.6,0.2,1.1,0.6,1.5
		C191.3,82.3,191.8,82.5,192.4,82.5L192.4,82.5z M192.1,87.9c-0.7,0-1.4-0.1-2-0.2c-0.6-0.2-1.2-0.4-1.7-0.7l0.8-1.8
		c0.4,0.2,0.9,0.4,1.3,0.6c0.4,0.1,1,0.2,1.5,0.2c0.8,0,1.4-0.2,1.8-0.6c0.4-0.4,0.6-1,0.6-1.8v-0.4c-0.4,0.4-0.7,0.8-1.2,1
		c-0.4,0.2-0.9,0.4-1.6,0.4c-0.5,0-1-0.1-1.4-0.3c-0.5-0.2-0.8-0.4-1.2-0.8c-0.3-0.3-0.6-0.8-0.8-1.3c-0.2-0.5-0.3-1.1-0.3-1.7v0
		c0-0.6,0.1-1.2,0.3-1.7c0.2-0.5,0.5-0.9,0.8-1.3c0.3-0.3,0.7-0.6,1.2-0.8c0.4-0.2,0.9-0.3,1.4-0.3c0.6,0,1.2,0.1,1.6,0.4
		c0.4,0.2,0.8,0.6,1.1,0.9v-1.1h2.4v6.7c0,1.5-0.4,2.7-1.1,3.4c-0.4,0.4-0.9,0.7-1.5,0.9C193.6,87.8,192.9,87.9,192.1,87.9
		L192.1,87.9z M200.9,80.2h3.6c-0.1-0.6-0.3-1-0.6-1.3c-0.3-0.3-0.7-0.5-1.2-0.5c-0.5,0-0.9,0.2-1.2,0.5
		C201.2,79.2,201,79.7,200.9,80.2L200.9,80.2z M202.9,85.4c-0.6,0-1.2-0.1-1.8-0.3c-0.5-0.2-1-0.5-1.4-0.9c-0.4-0.4-0.7-0.9-0.9-1.4
		c-0.2-0.5-0.3-1.2-0.3-1.8v0c0-0.6,0.1-1.2,0.3-1.7c0.2-0.6,0.5-1,0.9-1.4c0.4-0.4,0.8-0.7,1.3-1c0.5-0.2,1.1-0.4,1.7-0.4
		c0.7,0,1.3,0.1,1.8,0.4c0.5,0.3,0.9,0.6,1.3,1c0.3,0.4,0.6,0.9,0.8,1.5c0.2,0.6,0.2,1.2,0.2,1.8l0,0.3l0,0.3h-5.9
		c0.1,0.6,0.4,1,0.7,1.3c0.4,0.3,0.8,0.4,1.3,0.4c0.4,0,0.8-0.1,1.1-0.2c0.3-0.1,0.6-0.4,1-0.7l1.4,1.2c-0.4,0.5-0.9,0.9-1.4,1.2
		C204.4,85.3,203.7,85.4,202.9,85.4L202.9,85.4z"/>
	<path class="st1" d="M253.4,67.7v-2.5h2.7v-4.7l5.6-2.7l0.6,0.5l-0.2,7.1l1.7,0c0.4,0,1-0.1,1.8-0.2v2.7h-3.5v11.9
		c0,2.3,0.7,3.4,2.2,3.4c0.2,0,0.7-0.1,1.5-0.2v1.8c-1.4,0.5-2.8,0.8-4.3,0.8c-2.2,0-3.7-0.7-4.6-2.1c-0.7-1.1-1-2.8-1-5.1l0.1-3.7
		l0.1-3.7v-3.1H253.4L253.4,67.7z M276.8,64.4c3.1,0,5.6,0.9,7.6,2.6c2.1,1.8,3.1,4.2,3.1,7.2c0,3.5-1,6.3-3,8.4
		c-2,2.1-4.8,3.2-8.3,3.2c-3.4,0-6-0.9-7.9-2.6c-1.9-1.8-2.8-4.4-2.8-7.8c0-3.4,1-6.1,3.1-8.1C270.6,65.4,273.3,64.4,276.8,64.4
		L276.8,64.4z M276.4,83.7c1.7,0,2.9-1.1,3.6-3.4c0.5-1.6,0.8-3.4,0.8-5.5c0-2-0.2-3.8-0.7-5.2c-0.7-2.1-1.8-3.2-3.5-3.2
		c-1.7,0-2.9,1.1-3.7,3.3c-0.6,1.6-0.8,3.4-0.8,5.4C272.2,80.9,273.6,83.7,276.4,83.7L276.4,83.7z M300.2,74.5l-0.3-20.6
		c1,0.1,1.8,0.1,2.5,0.1c1.2,0,2.5-0.1,4-0.2l-0.3,10.2v3.6c1-0.9,1.9-1.6,2.6-2c0.9-0.5,2-0.7,3.2-0.7c2.3,0,4,0.7,5.2,2.2
		c1.1,1.3,1.7,3.2,1.7,5.5v12.9c-1.4-0.2-2.4-0.2-3.1-0.2c-0.3,0-1.4,0.1-3.3,0.3c0.2-3.3,0.3-6.7,0.3-10.3c0-4.4-1.1-6.7-3.3-6.7
		c-2.3,0-3.4,2.4-3.4,7.2c0,3.5,0.1,6.7,0.4,9.6c-1.3-0.1-2.4-0.2-3.4-0.2c-0.9,0-2,0.1-3.3,0.2C300.1,81.1,300.2,77.5,300.2,74.5
		L300.2,74.5z M334.1,75.4l-6.3,0.2c0.1,2.1,0.5,3.8,1.3,5.1c1,1.5,2.5,2.3,4.5,2.3c2,0,3.9-0.7,5.6-2l0.7,0.8
		c-0.3,0.7-0.7,1.4-1,2.3c-1.9,1.2-4.2,1.8-6.6,1.8c-3.4,0-6.1-0.9-8.1-2.8c-2-1.9-3-4.6-3-8c0-3.3,0.9-5.9,2.6-7.8
		c1.8-1.9,4.3-2.9,7.6-2.9c2.8,0,5,0.8,6.7,2.5c1.7,1.7,2.5,3.9,2.5,6.6c0,0.6,0,1.3-0.1,2C338.3,75.4,336.1,75.4,334.1,75.4
		L334.1,75.4z M330.5,73.2l3.8-0.1c0-0.2,0-0.5,0-0.9c0-1.3-0.2-2.5-0.6-3.5c-0.6-1.3-1.4-2-2.5-2c-1.2,0-2.2,0.8-2.8,2.4
		c-0.5,1.2-0.7,2.5-0.7,4C328.8,73.2,329.7,73.2,330.5,73.2L330.5,73.2z M343.1,70.7v-5.2l-0.2-11.8c1.4,0.2,2.6,0.3,3.4,0.3
		c0.8,0,1.8-0.1,3-0.3l-0.4,12.3v10.2c0,3.9,0.1,7,0.2,9.4c-0.4,0-0.9-0.1-1.6-0.2c-0.7-0.1-1.3-0.2-1.7-0.2c-0.9,0-2,0.1-3.2,0.3
		C342.9,81.6,343.1,76.7,343.1,70.7L343.1,70.7z M351.7,76.3L351.4,65c1.6,0.2,2.7,0.2,3.3,0.2c0.7,0,1.7-0.1,2.8-0.2v2.4
		c1.3-1.1,2.2-1.7,2.7-2c1-0.6,2.1-0.8,3.2-0.8c3,0,5.3,1,6.8,3.1c1.4,1.9,2.1,4.4,2.1,7.4c0,2.8-0.7,5.3-2.2,7.4
		c-1.7,2.3-3.9,3.5-6.6,3.5c-2.5,0-4.5-0.9-6.2-2.6V88c0,0,0.1,2.7,0.3,8c-1.2-0.2-2.3-0.3-3.1-0.3c-1.3,0-2.4,0.1-3.3,0.2
		L351.7,76.3L351.7,76.3z M361.6,83.1c1.6,0,2.8-1,3.5-3c0.5-1.4,0.8-3.1,0.8-5.1c0-4.9-1.4-7.3-4.2-7.3c-1.6,0-2.8,0.9-3.5,2.8
		c-0.5,1.3-0.8,2.9-0.8,4.8C357.4,80.5,358.8,83.1,361.6,83.1L361.6,83.1z M395,64.4c3.1,0,5.6,0.9,7.6,2.6c2.1,1.8,3.1,4.2,3.1,7.2
		c0,3.5-1,6.3-3,8.4c-2,2.1-4.8,3.2-8.3,3.2c-3.4,0-6-0.9-7.9-2.6c-1.9-1.8-2.8-4.4-2.8-7.8c0-3.4,1-6.1,3.1-8.1
		C388.9,65.4,391.6,64.4,395,64.4L395,64.4z M394.7,83.7c1.7,0,2.9-1.1,3.6-3.4c0.5-1.6,0.8-3.4,0.8-5.5c0-2-0.2-3.8-0.7-5.2
		c-0.7-2.1-1.8-3.2-3.5-3.2c-1.7,0-2.9,1.1-3.7,3.3c-0.6,1.6-0.8,3.4-0.8,5.4C390.4,80.9,391.8,83.7,394.7,83.7L394.7,83.7z
		 M405.8,67.7v-2.5h2.7v-4.7l5.6-2.7l0.6,0.5l-0.2,7.1l1.7,0c0.4,0,1-0.1,1.8-0.2v2.7h-3.5v11.9c0,2.3,0.7,3.4,2.2,3.4
		c0.2,0,0.7-0.1,1.5-0.2v1.8c-1.4,0.5-2.8,0.8-4.3,0.8c-2.2,0-3.7-0.7-4.6-2.1c-0.7-1.1-1-2.8-1-5.1l0.1-3.7l0.1-3.7v-3.1H405.8
		L405.8,67.7z M420.3,74.5L420,53.8c1,0.1,1.8,0.1,2.5,0.1c1.2,0,2.5-0.1,4-0.2l-0.3,10.2v3.6c1-0.9,1.9-1.6,2.6-2
		c0.9-0.5,2-0.7,3.2-0.7c2.3,0,4,0.7,5.2,2.2c1.1,1.3,1.7,3.2,1.7,5.5v12.9c-1.4-0.2-2.4-0.2-3.1-0.2c-0.3,0-1.4,0.1-3.3,0.3
		c0.2-3.3,0.3-6.7,0.3-10.3c0-4.4-1.1-6.7-3.3-6.7c-2.3,0-3.4,2.4-3.4,7.2c0,3.5,0.1,6.7,0.4,9.6c-1.3-0.1-2.4-0.2-3.4-0.2
		c-0.9,0-2,0.1-3.3,0.2C420.1,81.1,420.3,77.5,420.3,74.5L420.3,74.5z M453.2,75.4l-6.3,0.2c0,2.1,0.5,3.8,1.3,5.1
		c1,1.5,2.5,2.3,4.5,2.3c2,0,3.9-0.7,5.6-2l0.7,0.8c-0.3,0.7-0.7,1.4-1,2.3c-1.9,1.2-4.2,1.8-6.6,1.8c-3.4,0-6.1-0.9-8.1-2.8
		c-2-1.9-3-4.6-3-8c0-3.3,0.9-5.9,2.6-7.8c1.8-1.9,4.3-2.9,7.6-2.9c2.8,0,5,0.8,6.7,2.5c1.7,1.7,2.5,3.9,2.5,6.6c0,0.6,0,1.3-0.1,2
		C457.3,75.4,455.2,75.4,453.2,75.4L453.2,75.4z M449.5,73.2l3.8-0.1c0-0.2,0-0.5,0-0.9c0-1.3-0.2-2.5-0.6-3.5c-0.6-1.3-1.4-2-2.5-2
		c-1.2,0-2.2,0.8-2.8,2.4c-0.5,1.2-0.7,2.5-0.7,4C447.9,73.2,448.8,73.2,449.5,73.2L449.5,73.2z M461.9,70c0-1.1-0.1-2.8-0.2-5.1
		c1,0.2,2.2,0.2,3.6,0.2c0.5,0,1.4-0.1,2.6-0.2c-0.2,1.4-0.3,2.7-0.3,3.8v0.5c2.1-3,4.4-4.6,6.9-4.6v6.6c-1-0.5-1.9-0.8-2.8-0.8
		c-1.6,0-2.7,0.6-3.2,1.8c-0.4,0.8-0.6,2.1-0.6,3.9c0,4.5,0.1,7.6,0.2,9.3c-1.1-0.2-2.4-0.3-3.9-0.3l-2.7,0L461.9,70L461.9,70z
		 M489.5,65.9l-0.8,3.7l-0.8,0.2c-1.1-2-2.6-3-4.4-3c-0.7,0-1.3,0.2-1.8,0.6c-0.5,0.4-0.8,1-0.8,1.7c0,0.8,0.8,1.7,2.5,2.5
		c2.6,1.2,4.1,2,4.6,2.4c1.7,1.2,2.5,2.8,2.5,4.8c0,2.2-0.9,4-2.6,5.3c-1.6,1.2-3.5,1.8-5.8,1.8c-1.6,0-3.5-0.4-5.8-1.3l0.4-4.6h0.7
		c0.9,1.1,1.7,1.9,2.2,2.3c0.8,0.6,1.8,0.9,3,0.9c0.7,0,1.4-0.2,1.9-0.5c0.6-0.4,1-0.9,1-1.6c0-1-0.8-1.8-2.5-2.6
		c-2.6-1.2-4.2-2-4.6-2.3c-1.7-1.2-2.5-2.9-2.5-5c0-2.1,0.8-3.8,2.5-5.1c1.5-1.2,3.4-1.8,5.5-1.8C485.8,64.3,487.6,64.9,489.5,65.9
		L489.5,65.9z"/>
	<path class="st1" d="M255.7,27.4l-0.3-20.6c1,0.1,1.8,0.1,2.5,0.1c1.2,0,2.5-0.1,4-0.2l-0.3,10.2v3.6c1-0.9,1.9-1.6,2.6-2
		c0.9-0.5,2-0.7,3.2-0.7c2.3,0,4,0.7,5.2,2.2c1.1,1.3,1.7,3.2,1.7,5.5v12.9c-1.4-0.2-2.4-0.2-3.1-0.2c-0.3,0-1.4,0.1-3.3,0.3
		c0.2-3.3,0.3-6.7,0.3-10.3c0-4.4-1.1-6.7-3.3-6.7c-2.3,0-3.4,2.4-3.4,7.2c0,3.5,0.1,6.7,0.4,9.6c-1.3-0.1-2.4-0.2-3.4-0.2
		c-0.9,0-2,0.1-3.3,0.2C255.6,34.1,255.7,30.4,255.7,27.4L255.7,27.4z M289.1,28.3l-6.3,0.2c0.1,2.1,0.5,3.8,1.3,5.1
		c1,1.5,2.5,2.3,4.5,2.3c2,0,3.9-0.7,5.6-2l0.7,0.8c-0.3,0.7-0.7,1.4-1,2.3c-1.9,1.2-4.2,1.8-6.6,1.8c-3.4,0-6.1-0.9-8.1-2.8
		c-2-1.9-3-4.6-3-8c0-3.3,0.9-5.9,2.6-7.8c1.8-1.9,4.3-2.9,7.6-2.9c2.8,0,5,0.8,6.7,2.5c1.7,1.7,2.5,3.9,2.5,6.6c0,0.6,0,1.3-0.1,2
		C293.2,28.4,291.1,28.3,289.1,28.3L289.1,28.3z M285.4,26.2l3.8-0.1c0-0.2,0-0.5,0-0.9c0-1.3-0.2-2.5-0.6-3.5c-0.6-1.3-1.4-2-2.5-2
		c-1.2,0-2.2,0.8-2.8,2.4c-0.5,1.2-0.7,2.5-0.7,4C283.7,26.1,284.7,26.2,285.4,26.2L285.4,26.2z M298,23.7v-5.2l-0.2-11.8
		c1.4,0.2,2.6,0.3,3.4,0.3c0.8,0,1.8-0.1,3-0.3l-0.4,12.3v10.2c0,3.9,0.1,7,0.2,9.4c-0.4,0-0.9-0.1-1.6-0.2
		c-0.7-0.1-1.3-0.2-1.7-0.2c-0.9,0-2,0.1-3.2,0.3C297.9,34.5,298,29.6,298,23.7L298,23.7z M307.4,29.3L307.2,18
		c1.6,0.2,2.7,0.2,3.3,0.2c0.7,0,1.7-0.1,2.8-0.2v2.4c1.3-1.1,2.2-1.7,2.7-2c1-0.6,2.1-0.8,3.2-0.8c3,0,5.3,1,6.8,3.1
		c1.4,1.9,2.1,4.4,2.1,7.4c0,2.8-0.7,5.3-2.2,7.4c-1.7,2.3-3.9,3.5-6.6,3.5c-2.5,0-4.5-0.9-6.2-2.6V41c0,0,0.1,2.7,0.3,8
		c-1.2-0.2-2.3-0.3-3.1-0.3c-1.3,0-2.4,0.1-3.3,0.2L307.4,29.3L307.4,29.3z M317.3,36.1c1.6,0,2.8-1,3.5-3c0.5-1.4,0.8-3.1,0.8-5.1
		c0-4.9-1.4-7.3-4.2-7.3c-1.6,0-2.7,0.9-3.5,2.8c-0.5,1.3-0.8,2.9-0.8,4.8C313.2,33.5,314.5,36.1,317.3,36.1L317.3,36.1z
		 M333.3,18.2c0.8,0,1.9-0.1,3.4-0.4c-0.3,3.6-0.5,5.9-0.5,7v8.4l0.2,5c-1.2-0.1-2.5-0.2-3.7-0.2c-0.9,0-1.9,0-2.8,0.1
		c0.2-4.2,0.4-7.9,0.4-11.2c0-2.4-0.1-5.4-0.4-9.2C331.4,18.1,332.5,18.2,333.3,18.2L333.3,18.2z M330,10.8c0-0.9,0.3-1.6,1-2.3
		c0.7-0.7,1.4-1,2.3-1c0.9,0,1.7,0.3,2.4,0.9c0.7,0.7,1,1.4,1,2.4c0,0.9-0.3,1.7-1,2.4c-0.7,0.6-1.5,1-2.5,1c-0.9,0-1.7-0.3-2.3-1
		S330,11.7,330,10.8L330,10.8z M339.8,28.2L339.5,18c1.6,0.2,2.9,0.3,3.7,0.3c0.4,0,1.2-0.1,2.5-0.2v3c0.6-1.1,1.5-1.9,2.8-2.5
		c1.2-0.6,2.4-0.8,3.7-0.8c1.2,0,2.1,0.2,3,0.7c1.3,0.7,2.1,1.6,2.6,2.6c0.4,0.9,0.6,2.1,0.6,3.7l0,1.6l0,1.6l0,3.9l0,3.9l0,2.6
		c-1-0.1-2.1-0.2-3.2-0.2c-0.5,0-1.6,0.1-3.2,0.3c0.4-3.4,0.5-7.1,0.5-10.9c0-3.9-1.1-5.9-3.4-5.9c-2.5,0-3.7,2.7-3.7,8.1v5.2
		c0,1.4,0.1,2.6,0.2,3.6c-0.4,0-1-0.1-1.8-0.2c-0.8-0.1-1.4-0.1-1.9-0.1c-0.6,0-1.5,0.1-2.8,0.2C339.7,35.6,339.8,32.2,339.8,28.2
		L339.8,28.2z M362.1,34.8c0-1.4,1.1-2.7,3.4-3.8c-1.4-0.3-2.6-1.1-3.4-2.3c-0.8-1.2-1.2-2.5-1.2-4c0-2.4,1-4.2,2.9-5.5
		c1.6-1,3.7-1.5,6.3-1.5c0.8,0,1.8,0.1,3.2,0.2l3.2,0.2h6.1V21l-4.5-0.5c1,1.7,1.4,3.1,1.4,4.1c0,2.2-0.9,3.9-2.7,5.2
		c-1.6,1.2-3.5,1.8-5.8,1.8c-1.2,0-2.2-0.1-3-0.2c-0.3,0.5-0.4,0.9-0.4,1.3c0,0.9,0.9,1.5,2.6,1.6l5.5,0.3c2.4,0.3,4.1,1.1,5.1,2.4
		c0.9,1.1,1.3,2.2,1.3,3.5c0,2.9-1.3,5.1-3.8,6.8c-2.2,1.4-4.8,2.2-7.8,2.2c-2.6,0-4.9-0.4-6.7-1.3c-2.5-1.1-3.7-2.8-3.7-5.1
		c0-2.2,1.4-3.9,4.1-5c-0.8-0.7-1.3-1.2-1.4-1.4C362.3,36.2,362.1,35.6,362.1,34.8L362.1,34.8z M371,38.9h-4.3
		c-1.2,1.4-1.7,2.6-1.7,3.7c0,1.6,0.6,2.7,1.8,3.5c1,0.7,2.4,1,4,1c1.5,0,2.8-0.4,3.9-1.2c1.2-0.9,1.8-2.1,1.8-3.5
		c0-1.2-0.7-2.1-2-2.8C373.6,39.2,372.4,38.9,371,38.9L371,38.9z M370.2,29.7c2.2,0,3.3-1.7,3.3-5c0-3.2-1.1-4.7-3.2-4.7
		c-2.3,0-3.5,1.8-3.5,5.3c0,1.2,0.2,2.3,0.7,3.1C368.2,29.3,369.1,29.7,370.2,29.7L370.2,29.7z M394.5,18.3c0.6,0,1.8-0.1,3.5-0.3
		l4.6,13.3l4.6-13.2c0.9,0.1,1.7,0.2,2.4,0.2c0.5,0,1.1,0,1.6-0.1c-2.5,5.2-5.9,13.1-10.1,23.6l-3,7.4c-0.9-0.1-1.5-0.1-1.7-0.1
		c-0.9,0-1.7,0.1-2.4,0.2l5.2-10.1l-8.3-21C392.4,18.3,393.6,18.3,394.5,18.3L394.5,18.3z M421.2,17.4c3.1,0,5.6,0.9,7.6,2.6
		c2.1,1.8,3.1,4.2,3.1,7.2c0,3.5-1,6.3-3,8.4c-2,2.1-4.8,3.2-8.3,3.2c-3.4,0-6-0.9-7.9-2.6c-1.9-1.8-2.8-4.4-2.8-7.8
		c0-3.4,1-6.1,3.1-8.1C415.1,18.3,417.8,17.4,421.2,17.4L421.2,17.4z M420.9,36.7c1.7,0,2.9-1.1,3.6-3.4c0.5-1.6,0.8-3.4,0.8-5.5
		c0-2-0.2-3.8-0.7-5.2c-0.7-2.1-1.8-3.2-3.5-3.2c-1.7,0-2.9,1.1-3.7,3.3c-0.6,1.6-0.8,3.4-0.8,5.4C416.6,33.8,418.1,36.7,420.9,36.7
		L420.9,36.7z M436.9,18.3c0.7,0,1.8-0.1,3.3-0.3v13.3c0,2.6,1,3.9,3.1,3.9c2.4,0,3.6-2,3.6-6v-4.1l-0.2-6.8
		c1.5,0.1,2.6,0.2,3.3,0.2c0.7,0,1.7-0.1,3-0.3l-0.2,11.5l0.2,8.9c-1.3-0.2-2.6-0.2-3.9-0.2c-0.7,0-1.4,0-2.2,0.1v-2.5
		c-1,1.1-1.9,1.9-2.7,2.3c-1,0.5-2.1,0.8-3.5,0.8c-4.4,0-6.5-2.5-6.5-7.4v-5.3l-0.2-8.1C435.1,18.2,436.1,18.3,436.9,18.3
		L436.9,18.3z"/>
</g>
</svg>
